<?xml version="1.0" standalone="no"?>
<!DOCTYPE svg PUBLIC "-//W3C//DTD SVG 20010904//EN"
 "http://www.w3.org/TR/2001/REC-SVG-20010904/DTD/svg10.dtd">
<svg version="1.0" xmlns="http://www.w3.org/2000/svg"
 width="2048.000000pt" height="2678.000000pt" viewBox="0 0 2048.000000 2678.000000"
 preserveAspectRatio="xMidYMid meet">

<g transform="translate(0.000000,2678.000000) scale(0.100000,-0.100000)"
fill="#000000" stroke="none">
<path d="M5396 25142 c-252 -889 -460 -1618 -461 -1620 -2 -2 -110 67 -242
154 -131 86 -244 159 -250 161 -10 4 -13 -201 -13 -1006 l0 -1011 -248 -247
c-688 -687 -1199 -1396 -1622 -2248 -579 -1169 -871 -2408 -870 -3702 1 -1435
350 -2815 1020 -4038 853 -1556 2160 -2803 3751 -3579 956 -466 1923 -736
2988 -836 1581 -148 3176 147 4597 849 1882 929 3359 2516 4140 4448 319 790
513 1619 584 2503 18 219 24 830 11 1070 -75 1353 -445 2600 -1119 3765 -674
1166 -1647 2182 -2785 2909 -910 581 -1888 976 -2935 1186 -367 73 -639 111
-1062 147 -251 21 -921 24 -1195 4 -819 -57 -1602 -218 -2328 -477 -98 -35
-181 -64 -183 -64 -2 0 -4 357 -4 793 l-1 792 -253 -260 c-140 -143 -256 -258
-259 -255 -2 3 -181 494 -397 1093 -216 598 -396 1087 -399 1087 -3 0 -212
-728 -465 -1618z m935 -2689 c43 -340 79 -630 79 -644 0 -25 -4 -26 -111 -46
l-110 -20 -259 386 c-142 212 -260 390 -262 395 -3 9 574 556 580 551 2 -2 39
-282 83 -622z m6159 -713 l272 -810 880 -2 880 -3 -704 -494 c-386 -272 -707
-497 -711 -501 -4 -3 114 -368 263 -810 148 -442 268 -805 266 -808 -3 -2
-322 220 -711 493 -388 273 -711 494 -718 491 -7 -3 -327 -227 -712 -499 -385
-272 -701 -493 -703 -492 -1 1 120 366 269 810 257 767 270 810 252 822 -10 8
-330 233 -711 501 l-692 487 879 3 879 2 30 83 c16 45 138 409 272 810 134
400 244 727 245 727 1 0 125 -364 275 -810z m-6956 -388 c290 -392 526 -717
524 -721 -2 -6 -1304 -1185 -1399 -1268 -15 -13 -29 -4 -127 79 -61 51 -111
99 -111 105 -1 7 127 577 284 1268 157 690 285 1258 285 1262 0 12 2 9 544
-725z m1315 -2781 c95 -837 171 -1525 169 -1527 -6 -5 -1943 1754 -1943 1764
0 14 1589 1302 1596 1294 3 -4 83 -693 178 -1531z m-1014 -1710 l1730 -1561
5297 0 c2913 0 5299 -3 5301 -7 6 -13 -21 -383 -43 -582 -166 -1482 -777
-2912 -1739 -4076 -1288 -1557 -3110 -2561 -5116 -2821 -567 -73 -1239 -84
-1805 -28 -1290 127 -2494 549 -3584 1258 -469 305 -843 611 -1276 1045 -436
436 -756 833 -1072 1328 -189 296 -420 727 -557 1039 l-62 140 581 2870 c668
3299 600 2965 608 2960 4 -2 786 -707 1737 -1565z"/>
<path d="M14129 14363 c-5 -10 -115 -205 -242 -433 l-232 -415 -749 -5 -750
-5 -91 -295 -92 -295 679 -3 c373 -1 678 -5 678 -8 0 -4 -100 -184 -222 -401
l-223 -394 -85 5 c-466 31 -1039 39 -1175 18 -335 -53 -556 -153 -745 -336
-120 -116 -206 -254 -260 -413 -18 -54 -43 -170 -60 -280 -36 -225 -59 -314
-108 -408 -45 -87 -148 -193 -217 -225 -62 -28 -185 -38 -262 -20 -171 38
-354 177 -403 307 -63 164 -18 370 105 481 29 26 167 135 308 242 141 107 256
198 256 203 2 16 -404 492 -419 491 -8 0 -78 -45 -155 -99 -77 -54 -227 -156
-333 -226 -219 -146 -246 -155 -395 -146 -145 9 -207 54 -207 149 0 61 19 98
345 658 419 722 965 1669 965 1675 0 3 -1149 5 -2554 5 l-2554 0 -221 -322
c-121 -177 -220 -323 -218 -324 1 -1 790 -8 1752 -14 963 -6 1800 -15 1862
-18 l111 -7 -1022 -1765 c-561 -971 -1065 -1840 -1118 -1932 l-97 -168 625 0
625 0 237 360 237 360 365 0 365 -1 35 -45 c53 -69 239 -245 338 -318 106 -81
316 -187 435 -221 233 -66 556 -47 850 49 115 38 276 115 352 170 l50 36 123
0 123 0 55 -60 c103 -110 258 -209 410 -261 181 -62 110 -59 1812 -57 l1554 3
152 275 153 275 -726 5 -726 5 -49 25 c-91 46 -114 113 -78 228 13 41 251 463
702 1247 l683 1185 906 0 907 0 122 298 c67 163 122 300 122 305 0 4 -396 7
-880 7 l-880 0 215 430 c118 236 215 432 215 435 0 3 -286 5 -635 5 -594 0
-636 -1 -646 -17z m-1969 -3121 c30 -18 55 -45 73 -77 25 -45 27 -57 24 -130
-4 -94 -27 -147 -91 -213 -106 -111 -256 -128 -352 -40 -58 53 -78 109 -72
195 16 219 250 366 418 265z"/>
<path d="M20139 7399 l-46 -20 -23 -107 c-43 -205 -96 -346 -146 -393 -19 -18
-35 -23 -69 -21 -64 2 -116 33 -229 133 -156 139 -261 184 -426 184 -79 -1
-105 -5 -156 -26 -206 -86 -454 -339 -636 -649 -427 -730 -638 -1808 -614
-3145 14 -797 77 -1369 207 -1890 252 -1007 744 -1539 1344 -1455 289 40 570
192 779 422 l65 72 3 1100 c3 1099 3 1101 25 1178 48 171 105 278 197 372 l59
61 5 98 5 97 -25 0 c-25 0 -1034 -103 -1130 -116 l-48 -6 0 -78 0 -78 47 -27
c73 -44 166 -146 206 -228 65 -133 62 -85 62 -1177 0 -1116 4 -1049 -75 -1216
-129 -277 -435 -344 -619 -137 -268 300 -437 1143 -491 2444 -13 312 -13 1195
0 1569 28 810 96 1405 211 1850 137 526 326 759 584 719 335 -52 610 -566 790
-1474 24 -121 53 -291 66 -377 l23 -158 53 0 53 0 0 1250 c0 688 -1 1250 -2
1249 -2 0 -24 -10 -49 -20z"/>
<path d="M0 7312 l0 -88 46 -35 c88 -66 170 -196 217 -345 60 -190 57 -25 57
-3145 -1 -2360 -3 -2864 -14 -2909 -44 -177 -156 -348 -265 -405 -31 -15 -31
-16 -31 -99 l0 -84 212 -6 c117 -3 387 -9 601 -12 l387 -7 0 84 0 84 -45 28
c-101 64 -193 203 -230 345 -9 35 -20 109 -25 165 -12 136 -12 2301 0 2395 28
216 134 175 214 -83 14 -44 55 -188 91 -320 80 -290 169 -596 407 -1400 99
-335 187 -645 195 -690 16 -94 10 -179 -19 -248 -29 -67 -111 -139 -193 -168
l-65 -24 0 -81 0 -81 507 -7 c280 -3 563 -9 631 -13 l122 -6 0 89 0 90 -37 34
c-71 67 -147 204 -208 372 -50 137 -1135 3742 -1135 3770 0 22 484 1223 672
1665 98 232 142 308 209 367 84 73 206 110 327 99 l52 -6 0 82 c0 44 -2 81 -4
81 -2 0 -238 56 -524 125 -286 69 -527 125 -536 125 -13 0 -16 -13 -16 -82 l0
-83 56 -29 c113 -59 214 -190 249 -321 36 -138 16 -242 -105 -550 -68 -174
-463 -1218 -695 -1837 l-78 -208 -55 -30 c-31 -16 -59 -30 -64 -30 -5 0 -7
611 -5 1358 2 1210 4 1363 19 1408 39 128 127 242 221 290 l47 24 0 79 c0 67
-3 80 -17 85 -36 11 -1154 276 -1163 276 -6 0 -10 -39 -10 -88z"/>
<path d="M2980 6645 l0 -75 42 -21 c59 -30 147 -122 185 -194 43 -81 80 -196
100 -308 15 -83 17 -328 20 -2582 3 -1700 1 -2525 -6 -2601 -26 -267 -114
-441 -257 -509 l-54 -26 0 -78 0 -78 243 -6 c133 -4 414 -10 625 -13 l382 -7
0 75 c0 74 -1 76 -27 83 -46 11 -131 75 -168 125 -72 98 -121 236 -145 405 -6
44 -10 993 -10 2536 0 2436 0 2467 20 2545 11 43 34 107 51 141 51 105 160
208 242 228 27 7 27 8 27 90 l0 83 -47 11 c-27 5 -302 62 -613 125 -311 64
-575 118 -587 121 -22 5 -23 3 -23 -70z"/>
<path d="M17155 6630 c-159 -43 -319 -86 -354 -96 l-63 -17 6 -39 c13 -78 35
-117 73 -127 116 -32 209 -176 242 -376 9 -52 11 -487 9 -1734 l-3 -1663 -41
38 c-41 39 -46 52 -690 1847 -357 994 -653 1807 -659 1807 -5 0 -182 -47 -391
-106 l-382 -107 35 -45 c63 -83 157 -289 249 -551 l44 -123 -2 -2302 -3 -2301
-27 -96 c-14 -53 -38 -120 -53 -149 -36 -72 -116 -154 -171 -177 l-44 -18 0
-83 0 -82 378 2 377 3 3 81 3 82 -56 18 c-113 35 -191 138 -231 305 -17 70
-18 196 -21 2194 l-2 2120 47 -130 c26 -71 419 -1166 872 -2432 l825 -2303 42
0 43 0 0 2908 c0 3130 -2 2996 50 3167 45 145 129 303 194 364 21 20 26 34 26
75 0 72 -11 126 -24 125 -6 0 -141 -36 -301 -79z"/>
<path d="M4490 6313 l0 -78 75 -38 c139 -72 219 -183 245 -339 6 -42 10 -928
10 -2615 0 -2476 -1 -2553 -19 -2612 -36 -115 -130 -227 -248 -293 l-54 -30 3
-72 3 -71 140 -6 c77 -4 249 -10 383 -14 l242 -8 0 71 c0 67 -1 70 -26 76 -93
24 -197 145 -245 288 -18 55 -19 93 -19 791 0 404 3 1478 7 2388 6 1323 9
1643 19 1599 7 -30 223 -1224 480 -2653 310 -1717 471 -2590 476 -2575 4 13
240 1108 523 2433 284 1326 518 2415 520 2420 2 6 3 -957 2 -2140 -2 -2042 -3
-2153 -21 -2209 -44 -147 -144 -274 -254 -325 l-52 -24 0 -74 0 -73 363 0
c199 0 473 -3 610 -7 l247 -6 0 81 c0 80 0 80 -27 87 -113 25 -246 216 -273
391 -7 47 -10 750 -8 2249 4 2399 -1 2209 63 2340 34 71 139 168 205 192 l50
18 0 70 0 71 -467 106 c-258 58 -469 102 -470 99 -2 -3 -173 -840 -381 -1859
-209 -1019 -381 -1855 -384 -1858 -5 -4 -65 20 -74 30 -1 0 -156 903 -345
2006 -188 1103 -343 2006 -344 2007 -2 3 -939 243 -949 243 -3 0 -6 -35 -6
-77z"/>
<path d="M14177 5938 c-70 -27 -127 -54 -125 -59 4 -13 592 -718 596 -714 5 5
-331 825 -337 824 -3 0 -64 -23 -134 -51z"/>
<path d="M13340 5735 c-30 -7 -81 -18 -113 -25 l-58 -12 -125 -166 -125 -167
82 -3 83 -3 116 116 116 116 108 -82 109 -82 68 13 c38 6 69 14 69 16 0 2 -52
68 -116 146 -78 95 -123 144 -138 145 -11 1 -46 -4 -76 -12z"/>
<path d="M9120 5278 l0 -73 44 -28 c69 -43 155 -143 192 -222 72 -153 68 -85
72 -1144 l3 -954 -72 7 c-40 3 -112 9 -161 13 l-88 6 0 -160 0 -160 118 -12
c64 -7 138 -15 165 -18 l47 -6 0 -949 c0 -935 0 -949 -21 -1011 -45 -135 -150
-259 -247 -293 l-52 -19 0 -68 0 -67 743 2 742 3 76 38 c373 186 722 869 863
1687 59 345 79 598 79 1010 -1 753 -98 1311 -299 1715 -75 150 -136 236 -232
326 -81 76 -154 121 -254 157 -73 26 -74 27 -438 32 l-365 6 -440 122 c-242
68 -448 125 -457 128 -16 5 -18 -3 -18 -68z m1345 -412 c118 -37 197 -122 279
-298 126 -270 209 -657 258 -1208 18 -198 18 -1137 0 -1355 -67 -824 -217
-1319 -469 -1546 -161 -145 -424 -162 -504 -33 l-24 39 -3 998 c-2 898 -1 997
13 997 19 0 336 -38 382 -45 l32 -6 -2 166 c-1 90 -4 165 -7 165 -85 8 -392
49 -396 53 -4 4 -20 1368 -24 2003 l0 72 58 10 c84 16 346 8 407 -12z"/>
<path d="M13215 5225 c-358 -79 -657 -396 -885 -941 -165 -393 -288 -904 -342
-1424 -16 -156 -16 -645 1 -830 39 -440 111 -775 228 -1070 65 -164 111 -252
205 -391 206 -306 499 -508 779 -536 330 -35 628 130 861 476 284 423 478
1100 538 1876 20 256 12 733 -16 1005 -72 694 -260 1202 -566 1525 -238 252
-539 368 -803 310z m176 -157 c90 -30 174 -120 254 -271 162 -306 261 -773
317 -1492 18 -229 18 -1267 0 -1495 -38 -495 -90 -813 -178 -1078 -97 -297
-227 -468 -396 -522 -382 -123 -663 375 -762 1350 -53 520 -53 1343 0 1915 57
628 176 1094 343 1352 82 127 181 211 281 237 68 18 98 19 141 4z"/>
</g>
</svg>
