<?xml version="1.0" encoding="UTF-8"?>
<svg xmlns="http://www.w3.org/2000/svg" xmlns:xlink="http://www.w3.org/1999/xlink" width="182px" height="175px" viewBox="0 0 182 175" version="1.1">
<g id="surface1">
<path style=" stroke:none;fill-rule:nonzero;fill:rgb(0%,0%,0%);fill-opacity:1;" d="M 91.546875 17.886719 C 100.9375 18.199219 108.289062 19.636719 115.898438 22.574219 C 119.101562 23.800781 124.851562 26.496094 124.851562 26.738281 C 124.851562 26.84375 123.46875 26.285156 121.792969 25.515625 C 105.707031 18.269531 84.992188 17.21875 67.523438 22.785156 C 62.207031 24.464844 55.582031 27.546875 50.960938 30.449219 C 40.078125 37.34375 30.941406 47.496094 25.699219 58.589844 C 23.734375 62.683594 24.132812 62.300781 26.71875 57.503906 C 33.996094 44.066406 44.261719 34.195312 57.804688 27.683594 C 61.988281 25.691406 64.28125 24.921875 60.605469 26.773438 C 53.289062 30.449219 45.609375 35.910156 42.003906 39.933594 C 41.167969 40.84375 40.402344 41.546875 40.332031 41.476562 C 40.257812 41.371094 39.53125 41.964844 38.730469 42.769531 C 37.964844 43.539062 37.527344 44.101562 37.78125 43.960938 C 38 43.820312 38.21875 43.855469 38.21875 44.03125 C 38.21875 44.449219 37.308594 45.183594 37.054688 44.976562 C 36.507812 44.449219 30.210938 53.199219 27.808594 57.855469 C 22.75 67.550781 20.457031 76.089844 20.054688 86.800781 L 19.839844 93.273438 L 19.546875 89.25 C 19.144531 83.683594 19.730469 77.140625 21.148438 71.714844 C 21.511719 70.246094 21.875 68.703125 21.949219 68.320312 C 22.023438 67.898438 22.167969 67.480469 22.277344 67.339844 C 22.421875 67.234375 22.421875 66.921875 22.3125 66.640625 C 22.203125 66.359375 22.3125 66.148438 22.53125 66.148438 C 22.75 66.148438 22.824219 65.90625 22.714844 65.625 C 22.566406 65.34375 22.675781 65.101562 22.894531 65.101562 C 23.113281 65.101562 23.1875 64.855469 23.042969 64.503906 C 22.859375 64.121094 22.933594 64.015625 23.257812 64.226562 C 23.625 64.433594 23.660156 64.296875 23.476562 63.699219 C 23.332031 63.210938 23.367188 63 23.585938 63.140625 C 23.953125 63.351562 24.535156 62.335938 24.207031 62.019531 C 24.097656 61.914062 24.023438 62.054688 24.023438 62.300781 C 24.023438 62.546875 23.914062 62.683594 23.804688 62.546875 C 23.550781 62.300781 26.246094 56.140625 27.957031 53.199219 C 29.558594 50.433594 31.304688 47.703125 33.195312 45.148438 C 34.363281 43.574219 34.433594 43.433594 33.488281 44.449219 C 31.742188 46.304688 28.574219 50.996094 26.570312 54.636719 C 16.597656 72.871094 15.761719 94.5 24.242188 113.644531 C 33.34375 134.15625 49.867188 148.714844 70.980469 154.804688 C 77.75 156.765625 81.171875 157.21875 89.726562 157.324219 L 97.371094 157.429688 L 90.816406 157.148438 C 83.757812 156.871094 78.878906 156.136719 72.253906 154.316406 C 68.578125 153.335938 60.207031 150.21875 60.496094 149.941406 C 60.570312 149.871094 62.097656 150.394531 63.882812 151.09375 C 78.84375 156.835938 98.753906 157.253906 114.476562 152.214844 C 132.496094 146.441406 146.835938 134.46875 155.390625 118.054688 C 157.832031 113.363281 157.757812 112.945312 155.320312 117.425781 C 149.167969 128.589844 141.339844 136.886719 130.3125 143.851562 C 127.035156 145.914062 123.03125 148.050781 122.414062 148.050781 C 122.269531 148.050781 123.6875 147.140625 125.617188 146.019531 C 127.507812 144.898438 130.347656 143.046875 131.949219 141.890625 C 135.992188 138.914062 142.6875 133.035156 142.578125 132.546875 C 142.542969 132.300781 142.761719 132.160156 143.050781 132.230469 C 143.34375 132.300781 143.488281 132.230469 143.34375 132.125 C 143.015625 131.773438 143.707031 130.480469 144.109375 130.691406 C 144.253906 130.796875 144.800781 130.445312 145.273438 129.921875 C 145.746094 129.429688 145.855469 129.21875 145.527344 129.464844 C 145.164062 129.710938 144.871094 129.78125 144.871094 129.570312 C 144.871094 129.113281 145.78125 128.414062 146.074219 128.660156 C 146.183594 128.765625 147.164062 127.714844 148.257812 126.28125 C 156.738281 115.183594 161.359375 102.410156 161.90625 88.375 C 162.125 82.53125 162.160156 82.320312 162.34375 85.398438 C 162.636719 90.648438 162.089844 98.035156 161.070312 102.550781 C 160.125 106.644531 159.90625 107.554688 159.796875 107.695312 C 159.722656 107.765625 159.6875 107.941406 159.652344 108.113281 C 159.652344 108.289062 159.503906 108.535156 159.359375 108.675781 C 159.214844 108.816406 159.214844 109.128906 159.324219 109.410156 C 159.433594 109.691406 159.324219 109.898438 159.105469 109.898438 C 158.886719 109.898438 158.8125 110.144531 158.957031 110.496094 C 159.105469 110.84375 159.03125 110.984375 158.8125 110.84375 C 158.558594 110.671875 158.484375 110.878906 158.632812 111.371094 C 158.777344 111.929688 158.703125 112.035156 158.339844 111.824219 C 158.011719 111.648438 157.941406 111.683594 158.121094 111.964844 C 158.449219 112.488281 158.011719 113.820312 157.574219 113.574219 C 157.394531 113.46875 157.355469 113.609375 157.464844 113.890625 C 157.757812 114.625 153.789062 122.429688 151.207031 126.28125 C 150.078125 127.960938 148.257812 130.410156 147.128906 131.773438 C 146 133.105469 145.492188 133.910156 145.925781 133.523438 C 147.3125 132.371094 151.53125 126.734375 153.753906 123.128906 C 160.269531 112.453125 163.398438 101.253906 163.4375 88.898438 C 163.4375 77.28125 161.105469 67.761719 155.574219 57.050781 C 149.929688 46.128906 143.050781 37.941406 134.0625 31.429688 C 120.921875 21.910156 106.617188 17.394531 90.273438 17.570312 L 84.628906 17.640625 Z M 102.246094 21.699219 C 123.285156 25.445312 141.558594 38.324219 151.605469 56.421875 C 154.007812 60.761719 154.261719 60.726562 151.96875 56.351562 C 148.113281 48.964844 142.578125 42.140625 135.40625 35.875 C 132.605469 33.425781 133.371094 33.914062 137.445312 37.171875 C 140.722656 39.761719 145.308594 44.414062 148.074219 47.949219 C 155.027344 56.839844 159.140625 66.953125 160.558594 78.539062 C 161.253906 84.210938 160.777344 94.746094 159.613281 100.101562 C 158.304688 106.050781 156.519531 111.125 153.71875 116.621094 C 151.605469 120.785156 147.128906 127.820312 146.21875 128.34375 C 145.78125 128.589844 145.855469 128.484375 148.183594 125.054688 C 149.894531 122.5 153.972656 115.113281 153.972656 114.554688 C 153.972656 114.414062 153.027344 115.988281 151.859375 118.125 C 148.4375 124.460938 144.617188 129.394531 139.230469 134.574219 C 125.617188 147.664062 106.835938 154.980469 88.671875 154.246094 C 73.417969 153.648438 59.257812 148.261719 47.066406 138.496094 C 40.511719 133.210938 34.035156 125.578125 30.613281 119.070312 C 29.992188 117.878906 29.375 116.898438 29.300781 116.898438 C 29.191406 116.898438 29.59375 117.84375 30.210938 119 C 34.472656 127.121094 41.679688 135.519531 49.105469 141.050781 C 52.34375 143.464844 52.960938 144.128906 50.414062 142.449219 C 40.003906 135.554688 31.449219 125.824219 26.679688 115.429688 C 19.984375 100.765625 19.183594 82.496094 24.644531 66.746094 C 26.9375 60.128906 31.777344 51.308594 35.78125 46.480469 C 37.746094 44.101562 37.199219 45.359375 34.980469 48.335938 C 33.015625 50.960938 27.664062 60.339844 27.664062 61.109375 C 27.664062 61.285156 28.609375 59.675781 29.773438 57.574219 C 39.820312 39.128906 55.875 27.160156 76.984375 22.363281 C 85.285156 20.476562 94.203125 20.265625 102.246094 21.699219 Z M 40.402344 41.753906 C 40.402344 41.824219 39.859375 42.316406 39.238281 42.910156 L 38.039062 43.925781 L 39.09375 42.769531 C 40.113281 41.71875 40.402344 41.476562 40.402344 41.753906 Z M 142.324219 132.789062 C 142.324219 132.859375 142.03125 133.140625 141.707031 133.386719 C 141.121094 133.839844 141.085938 133.804688 141.558594 133.246094 C 142.03125 132.683594 142.324219 132.511719 142.324219 132.789062 Z M 142.324219 132.789062 "/>
<path style=" stroke:none;fill-rule:nonzero;fill:rgb(0%,0%,0%);fill-opacity:1;" d="M 27.15625 62.125 C 26.828125 63.035156 26.898438 63.246094 27.335938 62.546875 C 27.554688 62.195312 27.664062 61.808594 27.554688 61.738281 C 27.480469 61.636719 27.300781 61.808594 27.15625 62.125 Z M 27.15625 62.125 "/>
<path style=" stroke:none;fill-rule:nonzero;fill:rgb(0%,0%,0%);fill-opacity:1;" d="M 112.039062 70.769531 C 112.984375 71.679688 112.441406 74.164062 109.382812 82.84375 C 107.707031 87.710938 106.398438 91.910156 106.507812 92.191406 C 106.90625 93.136719 107.890625 93.101562 111.3125 92.015625 C 114.660156 90.964844 114.804688 90.929688 115.277344 91.558594 C 115.714844 92.121094 115.933594 92.15625 117.316406 91.804688 C 119.28125 91.28125 124.851562 89.355469 125.578125 88.898438 C 126.671875 88.234375 125.652344 88.234375 123.433594 88.898438 C 120.992188 89.636719 119.027344 89.808594 119.027344 89.285156 C 119.027344 88.515625 121.574219 82.738281 122.011719 82.53125 C 122.269531 82.390625 123.175781 82.109375 124.050781 81.898438 C 125.144531 81.621094 125.726562 81.269531 126.015625 80.640625 C 126.597656 79.449219 126.234375 79.273438 124.269531 79.941406 C 122.085938 80.640625 122.195312 80.675781 122.484375 79.519531 C 122.632812 78.996094 122.851562 77.628906 122.996094 76.476562 L 123.214844 74.375 L 125.6875 74.199219 C 127.765625 74.058594 128.308594 73.886719 128.890625 73.183594 C 129.910156 71.996094 129.765625 71.75 128.054688 71.925781 C 127.179688 72.03125 124.886719 72.171875 122.960938 72.308594 C 119.609375 72.484375 118.808594 72.765625 119.792969 73.359375 C 120.59375 73.816406 119.828125 77.523438 117.71875 83.230469 C 116.589844 86.378906 115.425781 89.179688 115.167969 89.425781 C 114.476562 90.054688 111.785156 90.476562 111.273438 89.984375 C 111.019531 89.738281 111.238281 88.726562 112.074219 86.554688 C 114.515625 80.289062 115.425781 77.140625 115.644531 74.515625 C 115.824219 71.925781 115.824219 71.855469 114.84375 71.121094 C 113.75 70.28125 111.238281 70 112.039062 70.769531 Z M 112.039062 70.769531 "/>
<path style=" stroke:none;fill-rule:nonzero;fill:rgb(0%,0%,0%);fill-opacity:1;" d="M 56.238281 72.414062 C 53.398438 73.046875 52.851562 73.746094 54.417969 74.761719 C 55.183594 75.214844 55.800781 75.285156 57.765625 75.109375 C 60.132812 74.863281 60.132812 74.863281 59.914062 75.671875 C 59.804688 76.125 58.929688 79.449219 57.984375 83.054688 L 56.238281 89.671875 L 57.148438 90.335938 C 57.804688 90.894531 58.3125 91 59.332031 90.824219 C 61.371094 90.476562 64.972656 89.355469 66.539062 88.585938 C 69.632812 87.078125 72.328125 82.601562 71.960938 79.554688 C 71.636719 76.71875 69.125 73.253906 66.648438 72.238281 C 65.011719 71.574219 59.515625 71.679688 56.238281 72.414062 Z M 66.683594 75.109375 C 68.175781 75.84375 68.796875 76.964844 68.796875 78.855469 C 68.796875 81.761719 68.105469 83.648438 66.429688 85.226562 C 64.28125 87.324219 59.332031 88.828125 59.839844 87.21875 C 60.132812 86.308594 61.441406 78.890625 61.734375 76.578125 C 61.917969 74.933594 62.097656 74.550781 62.753906 74.445312 C 63.773438 74.234375 65.484375 74.515625 66.683594 75.109375 Z M 66.683594 75.109375 "/>
<path style=" stroke:none;fill-rule:nonzero;fill:rgb(0%,0%,0%);fill-opacity:1;" d="M 95.113281 72.238281 C 90.746094 73.570312 87.359375 77.664062 87.359375 81.621094 C 87.359375 85.433594 89.617188 87.851562 93.21875 87.851562 C 96.605469 87.851562 99.625 86.238281 101.15625 83.648438 L 102.027344 82.144531 L 99.84375 83.578125 C 97.699219 84.980469 95.1875 85.890625 94.238281 85.609375 C 93.949219 85.539062 93.257812 85.363281 92.710938 85.226562 C 91.984375 85.085938 91.507812 84.664062 91.144531 83.789062 C 90.671875 82.703125 90.671875 82.320312 91.183594 80.429688 C 92.492188 75.460938 95.914062 72.835938 98.789062 74.515625 C 100.210938 75.390625 100.9375 75.425781 101.554688 74.726562 C 102.210938 73.953125 101.628906 72.800781 100.246094 72.238281 C 98.753906 71.644531 97.152344 71.644531 95.113281 72.238281 Z M 95.113281 72.238281 "/>
<path style=" stroke:none;fill-rule:nonzero;fill:rgb(0%,0%,0%);fill-opacity:1;" d="M 74.546875 72.835938 C 73.746094 73.253906 72.871094 77.140625 72.582031 81.410156 C 72.398438 84.59375 72.4375 85.015625 73.238281 86.449219 C 73.855469 87.640625 74.363281 88.09375 75.273438 88.339844 C 76.875 88.761719 77.933594 87.988281 80.007812 85.050781 L 81.535156 82.808594 L 81.535156 84.28125 C 81.535156 87.113281 83.28125 88.726562 85.832031 88.269531 C 86.558594 88.128906 86.59375 88.058594 86.160156 87.535156 C 85.175781 86.449219 85.140625 85.363281 85.902344 80.183594 C 86.742188 74.585938 86.632812 73.5 85.140625 73.5 C 84.410156 73.5 83.574219 74.96875 82.117188 78.820312 C 81.390625 80.746094 79.097656 84.175781 77.785156 85.363281 C 77.203125 85.890625 76.621094 86.101562 76.222656 85.960938 C 75.675781 85.75 75.640625 85.363281 75.859375 82.84375 C 76.585938 73.953125 76.585938 73.253906 75.859375 72.871094 C 75.421875 72.660156 74.910156 72.625 74.546875 72.835938 Z M 74.546875 72.835938 "/>
<path style=" stroke:none;fill-rule:nonzero;fill:rgb(0%,0%,0%);fill-opacity:1;" d="M 28.027344 114.625 C 28.027344 114.800781 28.210938 115.21875 28.390625 115.5 C 28.574219 115.78125 28.757812 115.851562 28.757812 115.675781 C 28.757812 115.464844 28.574219 115.078125 28.390625 114.800781 C 28.210938 114.519531 28.027344 114.414062 28.027344 114.625 Z M 28.027344 114.625 "/>
<path style=" stroke:none;fill-rule:nonzero;fill:rgb(0%,0%,0%);fill-opacity:1;" d="M 81.828125 18.09375 C 82.082031 18.199219 82.410156 18.164062 82.519531 18.058594 C 82.664062 17.953125 82.445312 17.851562 82.046875 17.886719 C 81.644531 17.886719 81.535156 17.988281 81.828125 18.09375 Z M 81.828125 18.09375 "/>
<path style=" stroke:none;fill-rule:nonzero;fill:rgb(0%,0%,0%);fill-opacity:1;" d="M 38.546875 38.746094 L 37.308594 40.074219 L 38.691406 38.886719 C 39.929688 37.730469 40.222656 37.449219 39.929688 37.449219 C 39.859375 37.449219 39.238281 38.046875 38.546875 38.746094 Z M 38.546875 38.746094 "/>
<path style=" stroke:none;fill-rule:nonzero;fill:rgb(0%,0%,0%);fill-opacity:1;" d="M 35.273438 42.246094 L 34.398438 43.226562 L 35.417969 42.386719 C 36.328125 41.578125 36.582031 41.300781 36.289062 41.300781 C 36.21875 41.300781 35.78125 41.71875 35.273438 42.246094 Z M 35.273438 42.246094 "/>
<path style=" stroke:none;fill-rule:nonzero;fill:rgb(0%,0%,0%);fill-opacity:1;" d="M 142.652344 136.746094 L 141.414062 138.074219 L 142.796875 136.886719 C 143.523438 136.21875 144.144531 135.625 144.144531 135.554688 C 144.144531 135.273438 143.851562 135.554688 142.652344 136.746094 Z M 142.652344 136.746094 "/>
<path style=" stroke:none;fill-rule:nonzero;fill:rgb(0%,0%,0%);fill-opacity:1;" d="M 99.664062 157.046875 C 99.917969 157.148438 100.246094 157.113281 100.355469 157.011719 C 100.5 156.90625 100.28125 156.800781 99.882812 156.835938 C 99.480469 156.835938 99.371094 156.941406 99.664062 157.046875 Z M 99.664062 157.046875 "/>
</g>
</svg>
